<mxfile><diagram id="w4NRJRUbfX9qJH2JdgkT" name="Page-1"><mxGraphModel dx="313" dy="402" grid="1" gridSize="10" guides="1" tooltips="1" connect="1" arrows="1" fold="1" page="1" pageScale="1" pageWidth="850" pageHeight="1100" math="0" shadow="0"><root><mxCell id="0"/><mxCell id="1" parent="0"/><mxCell id="3" value="" style="strokeWidth=1;shadow=0;dashed=0;align=center;html=1;shape=mxgraph.mockup.containers.browserWindow;rSize=0;strokeColor=#666666;strokeColor2=#008cff;strokeColor3=#c4c4c4;mainText=,;recursiveResize=0;" parent="1" vertex="1"><mxGeometry y="10" width="850" height="630" as="geometry"/></mxCell><mxCell id="5" value="&lt;font style=&quot;font-size: 48px&quot;&gt;Team Search Text&lt;/font&gt;" style="rounded=0;whiteSpace=wrap;html=1;strokeWidth=4;dashed=1;fillColor=none;align=left;strokeColor=none;" parent="3" vertex="1"><mxGeometry x="50" y="140" width="540" height="80" as="geometry"/></mxCell><mxCell id="6" value="Page 1" style="strokeWidth=1;shadow=0;dashed=0;align=center;html=1;shape=mxgraph.mockup.containers.anchor;fontSize=17;fontColor=#666666;align=left;" parent="3" vertex="1"><mxGeometry x="60" y="12" width="110" height="26" as="geometry"/></mxCell><mxCell id="7" value="https://www.draw.io" style="strokeWidth=1;shadow=0;dashed=0;align=center;html=1;shape=mxgraph.mockup.containers.anchor;rSize=0;fontSize=17;fontColor=#666666;align=left;" parent="3" vertex="1"><mxGeometry x="130" y="60" width="250" height="26" as="geometry"/></mxCell></root></mxGraphModel></diagram></mxfile>